<svg width="246" height="246" viewBox="0 0 246 246" fill="none" xmlns="http://www.w3.org/2000/svg">
<g filter="url(#filter0_i_5_13)">
<rect width="246" height="246" rx="30" fill="#373737"/>
</g>
<path d="M146.019 129.326H101.563L97.4897 141.977L95.7926 147.249H151.308L146.019 129.326Z" fill="white"/>
<path d="M103.671 52.3629L56.2286 201.369H78.3686L95.7926 147.249L97.4897 141.977L101.563 129.326L123.703 56.9314L103.671 52.3629Z" fill="white"/>
<path d="M143.031 52.3629L123.703 56.9314L146.019 129.326L151.308 147.249L167.28 201.369H190.474L143.031 52.3629Z" fill="white"/>
<path d="M103.671 52.3629L123.703 56.9314L143.031 52.3629L123.703 44.9829L103.671 52.3629Z" fill="white"/>
<path d="M103.671 52.3629L56.2286 201.369H78.3686L95.7926 147.249M103.671 52.3629L123.703 56.9314M103.671 52.3629L123.703 44.9829L143.031 52.3629M123.703 56.9314L143.031 52.3629M123.703 56.9314L146.019 129.326M123.703 56.9314L101.563 129.326M143.031 52.3629L190.474 201.369H167.28L151.308 147.249M146.019 129.326H101.563M146.019 129.326L151.308 147.249M101.563 129.326L97.4897 141.977L95.7926 147.249M95.7926 147.249H151.308" stroke="black"/>
<defs>
<filter id="filter0_i_5_13" x="0" y="0" width="246" height="250" filterUnits="userSpaceOnUse" color-interpolation-filters="sRGB">
<feFlood flood-opacity="0" result="BackgroundImageFix"/>
<feBlend mode="normal" in="SourceGraphic" in2="BackgroundImageFix" result="shape"/>
<feColorMatrix in="SourceAlpha" type="matrix" values="0 0 0 0 0 0 0 0 0 0 0 0 0 0 0 0 0 0 127 0" result="hardAlpha"/>
<feOffset dy="4"/>
<feGaussianBlur stdDeviation="2"/>
<feComposite in2="hardAlpha" operator="arithmetic" k2="-1" k3="1"/>
<feColorMatrix type="matrix" values="0 0 0 0 0 0 0 0 0 0 0 0 0 0 0 0 0 0 0.25 0"/>
<feBlend mode="normal" in2="shape" result="effect1_innerShadow_5_13"/>
</filter>
</defs>
</svg>
